<svg xmlns="http://www.w3.org/2000/svg" viewBox="0 0 32 32" width="32" height="32">
  <defs>
    <linearGradient id="grad1" x1="0%" y1="0%" x2="100%" y2="100%">
      <stop offset="0%" style="stop-color:#f59e0b;stop-opacity:1" />
      <stop offset="100%" style="stop-color:#d97706;stop-opacity:1" />
    </linearGradient>
  </defs>
  
  <!-- Background circle -->
  <circle cx="16" cy="16" r="15" fill="url(#grad1)" stroke="#92400e" stroke-width="1"/>
  
  <!-- Musical note -->
  <path d="M12 8 L12 20 C12 22 10 24 8 24 C6 24 4 22 4 20 C4 18 6 16 8 16 C8.5 16 9 16.2 9.5 16.5" 
        fill="none" stroke="white" stroke-width="2" stroke-linecap="round" stroke-linejoin="round"/>
  
  <!-- Note stem -->
  <line x1="12" y1="8" x2="12" y2="4" stroke="white" stroke-width="2" stroke-linecap="round"/>
  
  <!-- Note head -->
  <ellipse cx="12" cy="4" rx="2" ry="1.5" fill="white"/>
  
  <!-- Treble clef -->
  <path d="M20 6 C22 4 24 6 24 8 C24 10 22 12 20 12 C18 12 16 10 16 8 C16 6 18 4 20 6 Z M20 12 L20 24" 
        fill="none" stroke="white" stroke-width="1.5" stroke-linecap="round"/>
</svg>